<?xml version="1.0" encoding="UTF-8"?>
<svg>
  <defs>
    <g id="angry-eyebrows1">
      <path class="dark"
        d="M266.7,381.7l-59.8-34.5c-7.2-4.1-9.6-13.3-5.5-20.5c4.1-7.2,13.3-9.6,20.5-5.5l59.8,34.5c7.2,4.1,9.6,13.3,5.5,20.5C283.1,383.4,273.9,385.9,266.7,381.7z"></path>
      <path class="dark"
        d="M537.5,347.2l-59.8,34.5c-7.2,4.1-16.3,1.7-20.5-5.5c-4.1-7.2-1.7-16.3,5.5-20.5l59.8-34.5c7.2-4.1,16.3-1.7,20.5,5.5C547.1,333.9,544.6,343.1,537.5,347.2z"></path>
    </g>
    <g id="angry-eyebrows2">
      <path class="dark"
        d="M266.9,378.7l-59.8-34.5c-7.2-4.1-9.6-13.3-5.5-20.5c4.1-7.2,13.3-9.6,20.5-5.5l59.8,34.5c7.2,4.1,9.6,13.3,5.5,20.5C283.3,380.4,274.1,382.9,266.9,378.7z"></path>
      <path class="dark"
        d="M537.6,344.2l-59.8,34.5c-7.2,4.1-16.3,1.7-20.5-5.5c-4.1-7.2-1.7-16.3,5.5-20.5l59.8-34.5c7.2-4.1,16.3-1.7,20.5,5.5C547.2,330.9,544.8,340.1,537.6,344.2z"></path>
    </g>
    <g id="angry-eyebrows3">
      <path class="dark"
        d="M266.7,378.7L207,344.2c-7.2-4.1-9.6-13.3-5.5-20.5c4.1-7.2,13.3-9.6,20.5-5.5l59.8,34.5c7.2,4.1,9.6,13.3,5.5,20.5C283.1,380.4,273.9,382.9,266.7,378.7z"></path>
      <path class="dark"
        d="M537.5,344.2l-59.8,34.5c-7.2,4.1-16.3,1.7-20.5-5.5c-4.1-7.2-1.7-16.3,5.5-20.5l59.8-34.5c7.2-4.1,16.3-1.7,20.5,5.5C547.1,330.9,544.6,340.1,537.5,344.2z"></path>
    </g>
    <g id="closed-eyes">
      <path class="dark"
        d="M274.2,379.5h-59.5c-8.3,0-15-6.7-15-15.0s6.7-15,15-15.0H274.2c8.3,0,15,6.7,15,15.0S282.4,379.5,274.2,379.5z"></path>
      <path class="dark"
        d="M529.9,379.5h-59.5c-8.3,0-15-6.7-15-15.0s6.7-15,15-15.0h59.5c8.3,0,15,6.7,15,15.0S538.2,379.5,529.9,379.5z"></path>
    </g>
    <g id="closed-smile">
      <path class="dark"
        d="M372.3,529.0c-53.7,0-85.7-24.1-99.9-38.4c-5.8-5.9-5.8-15.4,0.1-21.2c5.9-5.8,15.4-5.8,21.2,0.1c13.4,13.5,37.9,29.5,78.6,29.5c40.7,0,65.2-16.1,78.6-29.5c5.8-5.9,15.3-5.9,21.2-0.1c5.9,5.8,5.9,15.3,0.1,21.2C457.9,504.9,426,529,372.3,529.0z"></path>
    </g>
    <g id="dollar-eyed">
      <path class="green"
        d="M238.8,435.7v-19.2c-13.5-0.6-26.6-4.2-34.3-8.7l6.1-23.6c8.5,4.6,20.4,8.9,33.5,8.9c11.5,0,19.4-4.4,19.4-12.5c0-7.7-6.5-12.5-21.4-17.6c-21.6-7.3-36.3-17.4-36.3-36.9c0-17.8,12.5-31.7,34.1-35.9v-19.2h19.8v17.8c13.5,0.6,22.6,3.4,29.3,6.7l-5.9,22.8c-5.2-2.2-14.5-6.9-29.1-6.9c-13.1,0-17.4,5.7-17.4,11.3c0,6.7,7.1,10.9,24.2,17.4c24,8.5,33.7,19.6,33.7,37.7c0,18-12.7,33.3-35.9,37.3v20.6H238.8z"></path>
      <path class="green"
        d="M484.2,435.7v-19.2c-13.5-0.6-26.6-4.2-34.3-8.7l6.1-23.6c8.5,4.6,20.4,8.9,33.5,8.9c11.5,0,19.4-4.4,19.4-12.5c0-7.7-6.5-12.5-21.4-17.6c-21.6-7.3-36.3-17.4-36.3-36.9c0-17.8,12.5-31.7,34.1-35.9v-19.2h19.8v17.8c13.5,0.6,22.6,3.4,29.3,6.7l-5.9,22.8c-5.2-2.2-14.5-6.9-29.1-6.9c-13.1,0-17.4,5.7-17.4,11.3c0,6.7,7.1,10.9,24.2,17.4c24,8.5,33.7,19.6,33.7,37.7c0,18-12.7,33.3-35.9,37.3v20.6H484.2z"></path>
    </g>
    <g id="eye-whites">
      <path class="white"
        d="M314.4,353.3c0-38.7-31.3-70-70-70.0c-38.7,0-70,31.3-70,70.0c0,38.7,31.3,70,70,70.0C283.1,423.3,314.4,392,314.4,353.3z"></path>
      <path class="white"
        d="M570.1,353.3c0-38.7-31.3-70-70-70.0c-38.7,0-70,31.3-70,70.0s31.3,70,70,70.0C538.8,423.3,570.1,392,570.1,353.3z"></path>
    </g>
    <g id="flat-eyebrows">
      <path class="dark"
        d="M278.9,363.4h-69.0c-8.3,0-15-6.7-15-15.0c0-8.3,6.7-15,15-15.0h69.0c8.3,0,15,6.7,15,15.0C293.9,356.7,287.2,363.4,278.9,363.4z"></path>
      <path class="dark"
        d="M534.6,363.4h-69.0c-8.3,0-15-6.7-15-15.0c0-8.3,6.7-15,15-15.0h69.0c8.3,0,15,6.7,15,15.0C549.6,356.7,542.9,363.4,534.6,363.4z"></path>
    </g>
    <g id="heart-eyes">
      <path class="heart-red"
        d="M552.5,341.1c0-14.5-11.8-26.3-26.3-26.3c-14.5,0-26.3,11.7-26.3,26.2c-0.1-14.5-11.8-26.2-26.3-26.2c-14.5,0-26.3,11.8-26.3,26.3c0,39,52.4,68.8,52.6,68.9C499.9,410,552.5,380,552.5,341.1z"></path>
      <path class="heart-red"
        d="M297.1,341.1c0-14.5-11.8-26.3-26.3-26.3c-14.5,0-26.3,11.7-26.3,26.2c-0.1-14.5-11.8-26.2-26.3-26.2c-14.5,0-26.3,11.8-26.3,26.3c0,39,52.4,68.8,52.6,68.9C244.5,410,297.1,380,297.1,341.1z"></path>
    </g>
    <g id="open-frown1">
      <path class="dark"
        d="M372.2,458.1c67.4,0,94.5,39.8,94.5,59.9c0,5.5-4.5,10-10,10.0h-169.0c-5.5,0-10-4.5-10-10.0C277.7,497.9,304.9,458.1,372.2,458.1z"></path>
    </g>
    <g id="open-frown2">
      <path class="dark"
        d="M372.3,463.1c67.4,0,94.5,39.8,94.5,59.9c0,5.5-4.5,10-10,10.0h-169.0c-5.5,0-10-4.5-10-10.0C277.8,502.8,304.9,463.1,372.3,463.1z"></path>
    </g>
    <g id="open-smile1">
      <path class="dark"
        d="M372.3,535.0c-75.4,0-104.5-39.7-104.5-59.9c0-5.5,4.5-10,10-10.0h189.0c5.5,0,10,4.5,10,10.0C476.8,495.2,447.7,535,372.3,535.0z"></path>
    </g>
    <g id="open-smile2">
      <path class="dark"
        d="M372.3,532.0c-75.4,0-104.5-39.7-104.5-59.9c0-5.5,4.5-10,10-10.0h189.0c5.5,0,10,4.5,10,10.0C476.8,492.2,447.7,532,372.3,532.0z"></path>
    </g>
    <g id="open-smile3">
      <path class="dark"
        d="M372.3,535.0c-75.4,0-104.5-39.7-104.5-59.9c0-5.5,4.5-10,10-10.0h189.0c5.5,0,10,4.5,10,10.0C476.8,495.3,447.7,535,372.3,535.0z"></path>
    </g>
    <g id="open-smile4">
      <path class="dark"
        d="M372.3,538.0c-75.4,0-104.5-39.7-104.5-59.9c0-5.5,4.5-10,10-10.0h189.0c5.5,0,10,4.5,10,10.0C476.8,498.3,447.7,538,372.3,538.0z"></path>
    </g>
    <g id="sad-eyebrows">
      <path class="dark"
        d="M281.9,347.2l-59.8,34.5c-7.2,4.1-16.3,1.7-20.5-5.5c-4.1-7.2-1.7-16.3,5.5-20.5l59.8-34.5c7.2-4.1,16.3-1.7,20.5,5.5C291.5,333.9,289,343.1,281.9,347.2z"></path>
      <path class="dark"
        d="M522.6,381.7l-59.8-34.5c-7.2-4.1-9.6-13.3-5.5-20.5c4.1-7.2,13.3-9.6,20.5-5.5l59.8,34.5c7.2,4.1,9.6,13.3,5.5,20.5C538.9,383.4,529.7,385.9,522.6,381.7z"></path>
    </g>
    <g id="side-eyed">
      <path class="dark"
        d="M284.2,363.4h-69.0c-8.3,0-15-6.7-15-15.0c0-8.3,6.7-15,15-15.0h69.0c8.3,0,15,6.7,15,15.0C299.2,356.7,292.5,363.4,284.2,363.4z"></path>
      <path class="dark"
        d="M540,363.4h-69.0c-8.3,0-15-6.7-15-15.0c0-8.3,6.7-15,15-15.0h69.0c8.3,0,15,6.7,15,15.0C555,356.7,548.2,363.4,540,363.4z"></path>
    </g>
    <g id="sweat">
      <path class="water-blue"
        d="M249.8,260.8c0,32.6-26.5,59.1-59.1,59.1c-32.6,0-59.1-26.5-59.1-59.1c0-54.5,59.1-91.9,59.1-91.9S249.8,206.3,249.8,260.8z"></path>
    </g>
    <g id="tears">
      <path class="water-blue"
        d="M590.2,438.5c5.2,19.4-6.3,39.4-25.7,44.6c-19.4,5.2-39.4-6.3-44.6-25.7c-8.7-32.4,20.5-64.1,20.5-64.1S581.5,406,590.2,438.5z"></path>
      <path class="water-blue"
        d="M154.3,438.5c-5.2,19.4,6.3,39.4,25.7,44.6c19.4,5.2,39.4-6.3,44.6-25.7c8.7-32.4-20.5-64.1-20.5-64.1S163,406,154.3,438.5z"></path>
    </g>
    <g id="thin-lipped1">
      <path class="dark"
        d="M426.9,507.0h-109.0c-8.3,0-15-6.7-15-15.0c0-8.3,6.7-15,15-15.0h109.0c8.3,0,15,6.7,15,15.0C441.9,500.3,435.2,507,426.9,507.0z"></path>
    </g>
    <g id="thin-lipped2">
      <path class="dark"
        d="M426.9,510.1h-109.0c-8.3,0-15-6.7-15-15.0s6.7-15,15-15.0h109.0c8.3,0,15,6.7,15,15.0S435.2,510.1,426.9,510.1z"></path>
    </g>
    <g id="thin-lipped3">
      <path class="dark"
        d="M426.9,513.1h-109.0c-8.3,0-15-6.7-15-15.0s6.7-15,15-15.0h109.0c8.3,0,15,6.7,15,15.0S435.2,513.1,426.9,513.1z"></path>
    </g>
    <g id="thin-lipped4">
      <path class="dark"
        d="M426.9,510.0h-109.0c-8.3,0-15-6.7-15-15.0s6.7-15,15-15.0h109.0c8.3,0,15,6.7,15,15.0S435.2,510,426.9,510.0z"></path>
    </g>
    <g id="tongue">
      <path class="tongue-red"
        d="M428,513.4c0-5.4-4.3-9.7-9.7-9.7l-92,0.0c-5.4,0-9.7,4.3-9.7,9.7V576.0c0,30.8,24.9,55.7,55.7,55.7s55.7-24.9,55.7-55.7V513.4z"></path>
    </g>
  </defs>
</svg>